<?xml version="1.0" standalone="no"?>
<!DOCTYPE svg PUBLIC "-//W3C//DTD SVG 1.1//EN"
  "http://www.w3.org/Graphics/SVG/1.1/DTD/svg11.dtd">
<svg xmlns="http://www.w3.org/2000/svg" version="1.1"
     width="471px" height="955px" viewBox="-15 -491 471 975">
  <defs>
    <style type="text/css"><![CDATA[
      .markmap-node {
        cursor: pointer;
      }

      .markmap-node-circle {
        fill: #fff;
        stroke-width: 1.5px;
      }

      .markmap-node-text {
        fill:  #000;
        font: 10px sans-serif;
      }

      .markmap-link {
        fill: none;
      }
    ]]></style>
  </defs>
  <g><path class="markmap-link" stroke="#929292" stroke-width="1" d="M256.41796875,393.75C286.41796875,393.75 286.41796875,318.75 316.41796875,318.75"></path><path class="markmap-link" stroke="#929292" stroke-width="1" d="M256.41796875,393.75C286.41796875,393.75 286.41796875,343.75 316.41796875,343.75"></path><path class="markmap-link" stroke="#929292" stroke-width="1" d="M256.41796875,393.75C286.41796875,393.75 286.41796875,368.75 316.41796875,368.75"></path><path class="markmap-link" stroke="#929292" stroke-width="1" d="M256.41796875,393.75C286.41796875,393.75 286.41796875,393.75 316.41796875,393.75"></path><path class="markmap-link" stroke="#929292" stroke-width="1" d="M256.41796875,393.75C286.41796875,393.75 286.41796875,418.75 316.41796875,418.75"></path><path class="markmap-link" stroke="#929292" stroke-width="1" d="M256.41796875,393.75C286.41796875,393.75 286.41796875,443.75 316.41796875,443.75"></path><path class="markmap-link" stroke="#929292" stroke-width="1" d="M256.41796875,393.75C286.41796875,393.75 286.41796875,468.75 316.41796875,468.75"></path><path class="markmap-link" stroke="#929292" stroke-width="1" d="M271.4228515625,226.25C301.4228515625,226.25 301.4228515625,163.75 331.4228515625,163.75"></path><path class="markmap-link" stroke="#929292" stroke-width="1" d="M271.4228515625,226.25C301.4228515625,226.25 301.4228515625,188.75 331.4228515625,188.75"></path><path class="markmap-link" stroke="#929292" stroke-width="1" d="M271.4228515625,226.25C301.4228515625,226.25 301.4228515625,213.75 331.4228515625,213.75"></path><path class="markmap-link" stroke="#929292" stroke-width="1" d="M271.4228515625,226.25C301.4228515625,226.25 301.4228515625,238.75 331.4228515625,238.75"></path><path class="markmap-link" stroke="#929292" stroke-width="1" d="M271.4228515625,226.25C301.4228515625,226.25 301.4228515625,263.75 331.4228515625,263.75"></path><path class="markmap-link" stroke="#929292" stroke-width="1" d="M271.4228515625,226.25C301.4228515625,226.25 301.4228515625,288.75 331.4228515625,288.75"></path><path class="markmap-link" stroke="#929292" stroke-width="1" d="M263.6494140625,71.25C293.6494140625,71.25 293.6494140625,8.75 323.6494140625,8.75"></path><path class="markmap-link" stroke="#929292" stroke-width="1" d="M263.6494140625,71.25C293.6494140625,71.25 293.6494140625,33.75 323.6494140625,33.75"></path><path class="markmap-link" stroke="#929292" stroke-width="1" d="M263.6494140625,71.25C293.6494140625,71.25 293.6494140625,58.75 323.6494140625,58.75"></path><path class="markmap-link" stroke="#929292" stroke-width="1" d="M263.6494140625,71.25C293.6494140625,71.25 293.6494140625,83.75 323.6494140625,83.75"></path><path class="markmap-link" stroke="#929292" stroke-width="1" d="M263.6494140625,71.25C293.6494140625,71.25 293.6494140625,108.75 323.6494140625,108.75"></path><path class="markmap-link" stroke="#929292" stroke-width="1" d="M263.6494140625,71.25C293.6494140625,71.25 293.6494140625,133.75 323.6494140625,133.75"></path><path class="markmap-link" stroke="#929292" stroke-width="1" d="M249.1962890625,-96.25C279.1962890625,-96.25 279.1962890625,-171.25 309.1962890625,-171.25"></path><path class="markmap-link" stroke="#929292" stroke-width="1" d="M249.1962890625,-96.25C279.1962890625,-96.25 279.1962890625,-146.25 309.1962890625,-146.25"></path><path class="markmap-link" stroke="#929292" stroke-width="1" d="M249.1962890625,-96.25C279.1962890625,-96.25 279.1962890625,-121.25 309.1962890625,-121.25"></path><path class="markmap-link" stroke="#929292" stroke-width="1" d="M249.1962890625,-96.25C279.1962890625,-96.25 279.1962890625,-96.25 309.1962890625,-96.25"></path><path class="markmap-link" stroke="#929292" stroke-width="1" d="M249.1962890625,-96.25C279.1962890625,-96.25 279.1962890625,-71.25 309.1962890625,-71.25"></path><path class="markmap-link" stroke="#929292" stroke-width="1" d="M249.1962890625,-96.25C279.1962890625,-96.25 279.1962890625,-46.25 309.1962890625,-46.25"></path><path class="markmap-link" stroke="#929292" stroke-width="1" d="M249.1962890625,-96.25C279.1962890625,-96.25 279.1962890625,-21.25 309.1962890625,-21.25"></path><path class="markmap-link" stroke="#929292" stroke-width="1" d="M249.7578125,-251.25C279.7578125,-251.25 279.7578125,-301.25 309.7578125,-301.25"></path><path class="markmap-link" stroke="#929292" stroke-width="1" d="M249.7578125,-251.25C279.7578125,-251.25 279.7578125,-276.25 309.7578125,-276.25"></path><path class="markmap-link" stroke="#929292" stroke-width="1" d="M249.7578125,-251.25C279.7578125,-251.25 279.7578125,-251.25 309.7578125,-251.25"></path><path class="markmap-link" stroke="#929292" stroke-width="1" d="M249.7578125,-251.25C279.7578125,-251.25 279.7578125,-226.25 309.7578125,-226.25"></path><path class="markmap-link" stroke="#929292" stroke-width="1" d="M249.7578125,-251.25C279.7578125,-251.25 279.7578125,-201.25 309.7578125,-201.25"></path><path class="markmap-link" stroke="#929292" stroke-width="1" d="M261.41796875,-393.75C291.41796875,-393.75 291.41796875,-456.25 321.41796875,-456.25"></path><path class="markmap-link" stroke="#929292" stroke-width="1" d="M261.41796875,-393.75C291.41796875,-393.75 291.41796875,-431.25 321.41796875,-431.25"></path><path class="markmap-link" stroke="#929292" stroke-width="1" d="M261.41796875,-393.75C291.41796875,-393.75 291.41796875,-406.25 321.41796875,-406.25"></path><path class="markmap-link" stroke="#929292" stroke-width="1" d="M261.41796875,-393.75C291.41796875,-393.75 291.41796875,-381.25 321.41796875,-381.25"></path><path class="markmap-link" stroke="#929292" stroke-width="1" d="M261.41796875,-393.75C291.41796875,-393.75 291.41796875,-356.25 321.41796875,-356.25"></path><path class="markmap-link" stroke="#929292" stroke-width="1" d="M261.41796875,-393.75C291.41796875,-393.75 291.41796875,-331.25 321.41796875,-331.25"></path><path class="markmap-link" stroke="#929292" stroke-width="1" d="M144.0732421875,0C174.0732421875,0 174.0732421875,-393.75 204.0732421875,-393.75"></path><path class="markmap-link" stroke="#929292" stroke-width="1" d="M144.0732421875,0C174.0732421875,0 174.0732421875,-251.25 204.0732421875,-251.25"></path><path class="markmap-link" stroke="#929292" stroke-width="1" d="M144.0732421875,0C174.0732421875,0 174.0732421875,-96.25 204.0732421875,-96.25"></path><path class="markmap-link" stroke="#929292" stroke-width="1" d="M144.0732421875,0C174.0732421875,0 174.0732421875,71.25 204.0732421875,71.25"></path><path class="markmap-link" stroke="#929292" stroke-width="1" d="M144.0732421875,0C174.0732421875,0 174.0732421875,226.25 204.0732421875,226.25"></path><path class="markmap-link" stroke="#929292" stroke-width="1" d="M144.0732421875,0C174.0732421875,0 174.0732421875,393.75 204.0732421875,393.75"></path><g class="markmap-node" transform="translate(316.41796875,468.75)"><rect class="markmap-node-rect" y="-10" x="-1" width="54.3447265625" height="20" fill="#dfdfdf" rx="10" ry="10" stroke="#929292" stroke-width="1"></rect><circle class="markmap-node-circle" cx="52.3447265625" stroke="#929292" r="4.5" style="display: none;"></circle><text class="markmap-node-text" x="10" dy="3" text-anchor="start" style="fill-opacity: 1;">Check</text></g><g class="markmap-node" transform="translate(316.41796875,443.75)"><rect class="markmap-node-rect" y="-10" x="-1" width="54.3447265625" height="20" fill="#dfdfdf" rx="10" ry="10" stroke="#929292" stroke-width="1"></rect><circle class="markmap-node-circle" cx="52.3447265625" stroke="#929292" r="4.5" style="display: none;"></circle><text class="markmap-node-text" x="10" dy="3" text-anchor="start" style="fill-opacity: 1;">Check</text></g><g class="markmap-node" transform="translate(316.41796875,418.75)"><rect class="markmap-node-rect" y="-10" x="-1" width="54.3447265625" height="20" fill="#dfdfdf" rx="10" ry="10" stroke="#929292" stroke-width="1"></rect><circle class="markmap-node-circle" cx="52.3447265625" stroke="#929292" r="4.5" style="display: none;"></circle><text class="markmap-node-text" x="10" dy="3" text-anchor="start" style="fill-opacity: 1;">Check</text></g><g class="markmap-node" transform="translate(316.41796875,393.75)"><rect class="markmap-node-rect" y="-10" x="-1" width="54.3447265625" height="20" fill="#dfdfdf" rx="10" ry="10" stroke="#929292" stroke-width="1"></rect><circle class="markmap-node-circle" cx="52.3447265625" stroke="#929292" r="4.5" style="display: none;"></circle><text class="markmap-node-text" x="10" dy="3" text-anchor="start" style="fill-opacity: 1;">Check</text></g><g class="markmap-node" transform="translate(316.41796875,368.75)"><rect class="markmap-node-rect" y="-10" x="-1" width="54.3447265625" height="20" fill="#dfdfdf" rx="10" ry="10" stroke="#929292" stroke-width="1"></rect><circle class="markmap-node-circle" cx="52.3447265625" stroke="#929292" r="4.5" style="display: none;"></circle><text class="markmap-node-text" x="10" dy="3" text-anchor="start" style="fill-opacity: 1;">Check</text></g><g class="markmap-node" transform="translate(316.41796875,343.75)"><rect class="markmap-node-rect" y="-10" x="-1" width="54.3447265625" height="20" fill="#dfdfdf" rx="10" ry="10" stroke="#929292" stroke-width="1"></rect><circle class="markmap-node-circle" cx="52.3447265625" stroke="#929292" r="4.5" style="display: none;"></circle><text class="markmap-node-text" x="10" dy="3" text-anchor="start" style="fill-opacity: 1;">Check</text></g><g class="markmap-node" transform="translate(316.41796875,318.75)"><rect class="markmap-node-rect" y="-10" x="-1" width="54.3447265625" height="20" fill="#dfdfdf" rx="10" ry="10" stroke="#929292" stroke-width="1"></rect><circle class="markmap-node-circle" cx="52.3447265625" stroke="#929292" r="4.5" style="display: none;"></circle><text class="markmap-node-text" x="10" dy="3" text-anchor="start" style="fill-opacity: 1;">Check</text></g><g class="markmap-node" transform="translate(204.0732421875,393.75)"><rect class="markmap-node-rect" y="-10" x="-1" width="54.3447265625" height="20" fill="#dfdfdf" rx="10" ry="10" stroke="#929292" stroke-width="1"></rect><circle class="markmap-node-circle" cx="52.3447265625" stroke="#929292" r="4.5"></circle><text class="markmap-node-text" x="10" dy="3" text-anchor="start" style="fill-opacity: 1;">Check</text></g><g class="markmap-node" transform="translate(331.4228515625,288.75)"><rect class="markmap-node-rect" y="-10" x="-1" width="54.3447265625" height="20" fill="#dfdfdf" rx="10" ry="10" stroke="#929292" stroke-width="1"></rect><circle class="markmap-node-circle" cx="52.3447265625" stroke="#929292" r="4.5" style="display: none;"></circle><text class="markmap-node-text" x="10" dy="3" text-anchor="start" style="fill-opacity: 1;">Check</text></g><g class="markmap-node" transform="translate(331.4228515625,263.75)"><rect class="markmap-node-rect" y="-10" x="-1" width="54.3447265625" height="20" fill="#dfdfdf" rx="10" ry="10" stroke="#929292" stroke-width="1"></rect><circle class="markmap-node-circle" cx="52.3447265625" stroke="#929292" r="4.5" style="display: none;"></circle><text class="markmap-node-text" x="10" dy="3" text-anchor="start" style="fill-opacity: 1;">Check</text></g><g class="markmap-node" transform="translate(331.4228515625,238.75)"><rect class="markmap-node-rect" y="-10" x="-1" width="54.3447265625" height="20" fill="#dfdfdf" rx="10" ry="10" stroke="#929292" stroke-width="1"></rect><circle class="markmap-node-circle" cx="52.3447265625" stroke="#929292" r="4.5" style="display: none;"></circle><text class="markmap-node-text" x="10" dy="3" text-anchor="start" style="fill-opacity: 1;">Check</text></g><g class="markmap-node" transform="translate(331.4228515625,213.75)"><rect class="markmap-node-rect" y="-10" x="-1" width="54.3447265625" height="20" fill="#dfdfdf" rx="10" ry="10" stroke="#929292" stroke-width="1"></rect><circle class="markmap-node-circle" cx="52.3447265625" stroke="#929292" r="4.5" style="display: none;"></circle><text class="markmap-node-text" x="10" dy="3" text-anchor="start" style="fill-opacity: 1;">Check</text></g><g class="markmap-node" transform="translate(331.4228515625,188.75)"><rect class="markmap-node-rect" y="-10" x="-1" width="111.615234375" height="20" fill="#dfdfdf" rx="10" ry="10" stroke="#929292" stroke-width="1"></rect><circle class="markmap-node-circle" cx="109.615234375" stroke="#929292" r="4.5" style="display: none;"></circle><text class="markmap-node-text" x="10" dy="3" text-anchor="start" style="fill-opacity: 1;">Reading and check</text></g><g class="markmap-node" transform="translate(331.4228515625,163.75)"><rect class="markmap-node-rect" y="-10" x="-1" width="94.173828125" height="20" fill="#dfdfdf" rx="10" ry="10" stroke="#929292" stroke-width="1"></rect><circle class="markmap-node-circle" cx="92.173828125" stroke="#929292" r="4.5" style="display: none;"></circle><text class="markmap-node-text" x="10" dy="3" text-anchor="start" style="fill-opacity: 1;">VOCABULARY</text></g><g class="markmap-node" transform="translate(204.0732421875,226.25)"><rect class="markmap-node-rect" y="-10" x="-1" width="69.349609375" height="20" fill="#dfdfdf" rx="10" ry="10" stroke="#929292" stroke-width="1"></rect><circle class="markmap-node-circle" cx="67.349609375" stroke="#929292" r="4.5"></circle><text class="markmap-node-text" x="10" dy="3" text-anchor="start" style="fill-opacity: 1;">Recycling</text></g><g class="markmap-node" transform="translate(323.6494140625,133.75)"><rect class="markmap-node-rect" y="-10" x="-1" width="54.3447265625" height="20" fill="#dfdfdf" rx="10" ry="10" stroke="#929292" stroke-width="1"></rect><circle class="markmap-node-circle" cx="52.3447265625" stroke="#929292" r="4.5" style="display: none;"></circle><text class="markmap-node-text" x="10" dy="3" text-anchor="start" style="fill-opacity: 1;">Check</text></g><g class="markmap-node" transform="translate(323.6494140625,108.75)"><rect class="markmap-node-rect" y="-10" x="-1" width="54.3447265625" height="20" fill="#dfdfdf" rx="10" ry="10" stroke="#929292" stroke-width="1"></rect><circle class="markmap-node-circle" cx="52.3447265625" stroke="#929292" r="4.5" style="display: none;"></circle><text class="markmap-node-text" x="10" dy="3" text-anchor="start" style="fill-opacity: 1;">Check</text></g><g class="markmap-node" transform="translate(323.6494140625,83.75)"><rect class="markmap-node-rect" y="-10" x="-1" width="54.3447265625" height="20" fill="#dfdfdf" rx="10" ry="10" stroke="#929292" stroke-width="1"></rect><circle class="markmap-node-circle" cx="52.3447265625" stroke="#929292" r="4.5" style="display: none;"></circle><text class="markmap-node-text" x="10" dy="3" text-anchor="start" style="fill-opacity: 1;">Check</text></g><g class="markmap-node" transform="translate(323.6494140625,58.75)"><rect class="markmap-node-rect" y="-10" x="-1" width="54.3447265625" height="20" fill="#dfdfdf" rx="10" ry="10" stroke="#929292" stroke-width="1"></rect><circle class="markmap-node-circle" cx="52.3447265625" stroke="#929292" r="4.5" style="display: none;"></circle><text class="markmap-node-text" x="10" dy="3" text-anchor="start" style="fill-opacity: 1;">Check</text></g><g class="markmap-node" transform="translate(323.6494140625,33.75)"><rect class="markmap-node-rect" y="-10" x="-1" width="88.44140625" height="20" fill="#dfdfdf" rx="10" ry="10" stroke="#929292" stroke-width="1"></rect><circle class="markmap-node-circle" cx="86.44140625" stroke="#929292" r="4.5" style="display: none;"></circle><text class="markmap-node-text" x="10" dy="3" text-anchor="start" style="fill-opacity: 1;">Training video</text></g><g class="markmap-node" transform="translate(323.6494140625,8.75)"><rect class="markmap-node-rect" y="-10" x="-1" width="94.173828125" height="20" fill="#dfdfdf" rx="10" ry="10" stroke="#929292" stroke-width="1"></rect><circle class="markmap-node-circle" cx="92.173828125" stroke="#929292" r="4.5" style="display: none;"></circle><text class="markmap-node-text" x="10" dy="3" text-anchor="start" style="fill-opacity: 1;">VOCABULARY</text></g><g class="markmap-node" transform="translate(204.0732421875,71.25)"><rect class="markmap-node-rect" y="-10" x="-1" width="61.576171875" height="20" fill="#dfdfdf" rx="10" ry="10" stroke="#929292" stroke-width="1"></rect><circle class="markmap-node-circle" cx="59.576171875" stroke="#929292" r="4.5"></circle><text class="markmap-node-text" x="10" dy="3" text-anchor="start" style="fill-opacity: 1;">Fashion</text></g><g class="markmap-node" transform="translate(309.1962890625,-21.25)"><rect class="markmap-node-rect" y="-10" x="-1" width="54.3447265625" height="20" fill="#dfdfdf" rx="10" ry="10" stroke="#929292" stroke-width="1"></rect><circle class="markmap-node-circle" cx="52.3447265625" stroke="#929292" r="4.5" style="display: none;"></circle><text class="markmap-node-text" x="10" dy="3" text-anchor="start" style="fill-opacity: 1;">Check</text></g><g class="markmap-node" transform="translate(309.1962890625,-46.25)"><rect class="markmap-node-rect" y="-10" x="-1" width="54.3447265625" height="20" fill="#dfdfdf" rx="10" ry="10" stroke="#929292" stroke-width="1"></rect><circle class="markmap-node-circle" cx="52.3447265625" stroke="#929292" r="4.5" style="display: none;"></circle><text class="markmap-node-text" x="10" dy="3" text-anchor="start" style="fill-opacity: 1;">Check</text></g><g class="markmap-node" transform="translate(309.1962890625,-71.25)"><rect class="markmap-node-rect" y="-10" x="-1" width="54.3447265625" height="20" fill="#dfdfdf" rx="10" ry="10" stroke="#929292" stroke-width="1"></rect><circle class="markmap-node-circle" cx="52.3447265625" stroke="#929292" r="4.5" style="display: none;"></circle><text class="markmap-node-text" x="10" dy="3" text-anchor="start" style="fill-opacity: 1;">Check</text></g><g class="markmap-node" transform="translate(309.1962890625,-96.25)"><rect class="markmap-node-rect" y="-10" x="-1" width="54.3447265625" height="20" fill="#dfdfdf" rx="10" ry="10" stroke="#929292" stroke-width="1"></rect><circle class="markmap-node-circle" cx="52.3447265625" stroke="#929292" r="4.5" style="display: none;"></circle><text class="markmap-node-text" x="10" dy="3" text-anchor="start" style="fill-opacity: 1;">Check</text></g><g class="markmap-node" transform="translate(309.1962890625,-121.25)"><rect class="markmap-node-rect" y="-10" x="-1" width="54.3447265625" height="20" fill="#dfdfdf" rx="10" ry="10" stroke="#929292" stroke-width="1"></rect><circle class="markmap-node-circle" cx="52.3447265625" stroke="#929292" r="4.5" style="display: none;"></circle><text class="markmap-node-text" x="10" dy="3" text-anchor="start" style="fill-opacity: 1;">Check</text></g><g class="markmap-node" transform="translate(309.1962890625,-146.25)"><rect class="markmap-node-rect" y="-10" x="-1" width="88.44140625" height="20" fill="#dfdfdf" rx="10" ry="10" stroke="#929292" stroke-width="1"></rect><circle class="markmap-node-circle" cx="86.44140625" stroke="#929292" r="4.5" style="display: none;"></circle><text class="markmap-node-text" x="10" dy="3" text-anchor="start" style="fill-opacity: 1;">Training video</text></g><g class="markmap-node" transform="translate(309.1962890625,-171.25)"><rect class="markmap-node-rect" y="-10" x="-1" width="94.173828125" height="20" fill="#dfdfdf" rx="10" ry="10" stroke="#929292" stroke-width="1"></rect><circle class="markmap-node-circle" cx="92.173828125" stroke="#929292" r="4.5" style="display: none;"></circle><text class="markmap-node-text" x="10" dy="3" text-anchor="start" style="fill-opacity: 1;">VOCABULARY</text></g><g class="markmap-node" transform="translate(204.0732421875,-96.25)"><rect class="markmap-node-rect" y="-10" x="-1" width="47.123046875" height="20" fill="#dfdfdf" rx="10" ry="10" stroke="#929292" stroke-width="1"></rect><circle class="markmap-node-circle" cx="45.123046875" stroke="#929292" r="4.5"></circle><text class="markmap-node-text" x="10" dy="3" text-anchor="start" style="fill-opacity: 1;">Hate</text></g><g class="markmap-node" transform="translate(309.7578125,-201.25)"><rect class="markmap-node-rect" y="-10" x="-1" width="54.3447265625" height="20" fill="#dfdfdf" rx="10" ry="10" stroke="#929292" stroke-width="1"></rect><circle class="markmap-node-circle" cx="52.3447265625" stroke="#929292" r="4.5" style="display: none;"></circle><text class="markmap-node-text" x="10" dy="3" text-anchor="start" style="fill-opacity: 1;">Check</text></g><g class="markmap-node" transform="translate(309.7578125,-226.25)"><rect class="markmap-node-rect" y="-10" x="-1" width="54.3447265625" height="20" fill="#dfdfdf" rx="10" ry="10" stroke="#929292" stroke-width="1"></rect><circle class="markmap-node-circle" cx="52.3447265625" stroke="#929292" r="4.5" style="display: none;"></circle><text class="markmap-node-text" x="10" dy="3" text-anchor="start" style="fill-opacity: 1;">Check</text></g><g class="markmap-node" transform="translate(309.7578125,-251.25)"><rect class="markmap-node-rect" y="-10" x="-1" width="54.3447265625" height="20" fill="#dfdfdf" rx="10" ry="10" stroke="#929292" stroke-width="1"></rect><circle class="markmap-node-circle" cx="52.3447265625" stroke="#929292" r="4.5" style="display: none;"></circle><text class="markmap-node-text" x="10" dy="3" text-anchor="start" style="fill-opacity: 1;">Check</text></g><g class="markmap-node" transform="translate(309.7578125,-276.25)"><rect class="markmap-node-rect" y="-10" x="-1" width="71.5615234375" height="20" fill="#dfdfdf" rx="10" ry="10" stroke="#929292" stroke-width="1"></rect><circle class="markmap-node-circle" cx="69.5615234375" stroke="#929292" r="4.5" style="display: none;"></circle><text class="markmap-node-text" x="10" dy="3" text-anchor="start" style="fill-opacity: 1;">READING</text></g><g class="markmap-node" transform="translate(309.7578125,-301.25)"><rect class="markmap-node-rect" y="-10" x="-1" width="94.173828125" height="20" fill="#dfdfdf" rx="10" ry="10" stroke="#929292" stroke-width="1"></rect><circle class="markmap-node-circle" cx="92.173828125" stroke="#929292" r="4.5" style="display: none;"></circle><text class="markmap-node-text" x="10" dy="3" text-anchor="start" style="fill-opacity: 1;">VOCABULARY</text></g><g class="markmap-node" transform="translate(204.0732421875,-251.25)"><rect class="markmap-node-rect" y="-10" x="-1" width="47.6845703125" height="20" fill="#dfdfdf" rx="10" ry="10" stroke="#929292" stroke-width="1"></rect><circle class="markmap-node-circle" cx="45.6845703125" stroke="#929292" r="4.5"></circle><text class="markmap-node-text" x="10" dy="3" text-anchor="start" style="fill-opacity: 1;">Love</text></g><g class="markmap-node" transform="translate(321.41796875,-331.25)"><rect class="markmap-node-rect" y="-10" x="-1" width="54.3447265625" height="20" fill="#dfdfdf" rx="10" ry="10" stroke="#929292" stroke-width="1"></rect><circle class="markmap-node-circle" cx="52.3447265625" stroke="#929292" r="4.5" style="display: none;"></circle><text class="markmap-node-text" x="10" dy="3" text-anchor="start" style="fill-opacity: 1;">Check</text></g><g class="markmap-node" transform="translate(321.41796875,-356.25)"><rect class="markmap-node-rect" y="-10" x="-1" width="54.3447265625" height="20" fill="#dfdfdf" rx="10" ry="10" stroke="#929292" stroke-width="1"></rect><circle class="markmap-node-circle" cx="52.3447265625" stroke="#929292" r="4.5" style="display: none;"></circle><text class="markmap-node-text" x="10" dy="3" text-anchor="start" style="fill-opacity: 1;">Check</text></g><g class="markmap-node" transform="translate(321.41796875,-381.25)"><rect class="markmap-node-rect" y="-10" x="-1" width="54.3447265625" height="20" fill="#dfdfdf" rx="10" ry="10" stroke="#929292" stroke-width="1"></rect><circle class="markmap-node-circle" cx="52.3447265625" stroke="#929292" r="4.5" style="display: none;"></circle><text class="markmap-node-text" x="10" dy="3" text-anchor="start" style="fill-opacity: 1;">Check</text></g><g class="markmap-node" transform="translate(321.41796875,-406.25)"><rect class="markmap-node-rect" y="-10" x="-1" width="54.3447265625" height="20" fill="#dfdfdf" rx="10" ry="10" stroke="#929292" stroke-width="1"></rect><circle class="markmap-node-circle" cx="52.3447265625" stroke="#929292" r="4.5" style="display: none;"></circle><text class="markmap-node-text" x="10" dy="3" text-anchor="start" style="fill-opacity: 1;">Check</text></g><g class="markmap-node" transform="translate(321.41796875,-431.25)"><rect class="markmap-node-rect" y="-10" x="-1" width="88.44140625" height="20" fill="#dfdfdf" rx="10" ry="10" stroke="#929292" stroke-width="1"></rect><circle class="markmap-node-circle" cx="86.44140625" stroke="#929292" r="4.5" style="display: none;"></circle><text class="markmap-node-text" x="10" dy="3" text-anchor="start" style="fill-opacity: 1;">Training video</text></g><g class="markmap-node" transform="translate(321.41796875,-456.25)"><rect class="markmap-node-rect" y="-10" x="-1" width="94.173828125" height="20" fill="#dfdfdf" rx="10" ry="10" stroke="#929292" stroke-width="1"></rect><circle class="markmap-node-circle" cx="92.173828125" stroke="#929292" r="4.5" style="display: none;"></circle><text class="markmap-node-text" x="10" dy="3" text-anchor="start" style="fill-opacity: 1;">VOCABULARY</text></g><g class="markmap-node" transform="translate(204.0732421875,-393.75)"><rect class="markmap-node-rect" y="-10" x="-1" width="59.3447265625" height="20" fill="#dfdfdf" rx="10" ry="10" stroke="#929292" stroke-width="1"></rect><circle class="markmap-node-circle" cx="57.3447265625" stroke="#929292" r="4.5"></circle><text class="markmap-node-text" x="10" dy="3" text-anchor="start" style="fill-opacity: 1;">Friends</text></g><g class="markmap-node" transform="translate(0,0)"><rect class="markmap-node-rect" y="-10" x="-1" width="146.0732421875" height="20" fill="#dfdfdf" rx="10" ry="10" stroke="#929292" stroke-width="1"></rect><circle class="markmap-node-circle" cx="144.0732421875" stroke="#929292" r="4.5"></circle><text class="markmap-node-text" x="10" dy="3" text-anchor="start" style="fill-opacity: 1;">Foreign language (English)</text></g></g>
</svg>